<svg id="Layer_1" data-name="Layer 1" xmlns="http://www.w3.org/2000/svg" xmlns:xlink="http://www.w3.org/1999/xlink" viewBox="0 0 150 150"><defs><style>.cls-1{fill:none;}.cls-2{fill:#eb2347;}.cls-3{fill:#212222;}.cls-4{fill:#12497c;}.cls-5{fill:#cbcacb;}.cls-6{fill:#a2a4a4;}.cls-7{fill:#173c63;}.cls-8{clip-path:url(#clip-path);}.cls-9{fill:#fff;}.cls-10{fill:#833c3d;}.cls-11{fill:#f05e60;}.cls-12{fill:#d2d3d2;}.cls-13{font-size:32.85px;fill:#4a4a4a;font-family:OpenSans-Extrabold, Open Sans;font-weight:800;}</style><clipPath id="clip-path"><path class="cls-1" d="M75.05,96.23c24.1,0,46,4.9,62,12.9a46.82,46.82,0,0,1,5.4,3V78.53c0-40.6-30.4-62.3-67.5-62.3S7.55,38,7.55,78.53v33.6c1.7-1,3.6-2,5.5-3,16-8,37.9-12.9,62-12.9"/></clipPath></defs><path class="cls-2" d="M75,28.23c-7.1,0-12.8-5.3-12.8-11.7S67.85,4.83,75,4.83s12.8,5.3,12.8,11.7-5.7,11.7-12.8,11.7"/><path class="cls-3" d="M75,8.43c5.2,0,9.5,3.6,9.5,8.1s-4.2,8.1-9.5,8.1-9.5-3.6-9.5-8.1,4.3-8.1,9.5-8.1m0-7.3A16.84,16.84,0,0,0,64.15,5a15,15,0,0,0-5.3,11.4,14.72,14.72,0,0,0,5.3,11.4,16.9,16.9,0,0,0,21.6,0,15,15,0,0,0,5.3-11.4A14.72,14.72,0,0,0,85.75,5,16.64,16.64,0,0,0,75,1.13"/><path class="cls-2" d="M137.05,109.13c-16-8-37.9-12.9-62-12.9s-46,4.9-62,12.9c-1.9,1-3.8,2-5.5,3l4.2,27.7c.6,4.2,4.6,6.8,8.3,5.3,15.1-6.1,34.2-9.8,55-9.8,21,0,40.4,3.8,55.6,10,3.3,1.4,6.9-1,7.5-4.8l4.3-28.5c-1.7-.9-3.5-1.9-5.4-2.9"/><path class="cls-4" d="M133.15,107.33l1.5.7.1-.4Z"/><path class="cls-5" d="M15.55,107.93l-.3.1.3-.1"/><path class="cls-4" d="M15.55,107.93l-.3.1v.1l.3-.2m110.9-3.3,1.1.4v-.2Z"/><path class="cls-5" d="M32.35,101.83l-1.4.4,1.4-.4"/><path class="cls-4" d="M32.35,101.83,31,102v.1l1.4-.3"/><path class="cls-5" d="M22.45,105l-.6.2Zm3.1-1.1-1.2.4Z"/><path class="cls-4" d="M22.45,105l-.6.2a2,2,0,0,0,.8.8Zm3.1-1.1-1.2.4.3,1.7a2.46,2.46,0,0,0,1-2l-.1-.1"/><path class="cls-6" d="M24.35,104.33l-1.9.7Z"/><path class="cls-7" d="M24.35,104.33l-2,.4.1.4Zm0,0-1.9.7.2,1a1.69,1.69,0,0,0,1,.3h.1a1.61,1.61,0,0,0,.9-.3Z"/><path class="cls-5" d="M124.75,104l1.3.5-1.3-.5"/><path class="cls-4" d="M124.75,104v.3l.8.1h.1l.5.1h-.1l-1.3-.5"/><path class="cls-2" d="M75.05,96.23c24.1,0,46,4.9,62,12.9a46.82,46.82,0,0,1,5.4,3V78.53c0-40.6-30.4-62.3-67.5-62.3S7.55,38,7.55,78.53v33.6c1.7-1,3.6-2,5.5-3,16-8,37.9-12.9,62-12.9"/><g class="cls-8"><path class="cls-9" d="M129.25,93.33c0-21.6-6-39.9-15.7-53.5-7.8-10.9-23.7-21-35-25.4-2.4-.2-10.6,2-13.1,2.2-9.3,3.3-7.5,3-11.7,5.6a62.41,62.41,0,0,0-23.5,26.3c-5.7,11.6-8.9,26.2-9,44.2v1.1c0,3.4.1,6.9.4,10.6a17.33,17.33,0,0,0,.3,3.2c.2-.1,23.5-8,34.3-9.2,13.9-1.5,20.8-.3,30.1-.3s19.6,1.5,27.3,4.6,12.7,5.2,12.7,2.1v1.8l2.5.7v1.6c.2-4,.4-11.8.4-15.6"/></g><path class="cls-10" d="M142.45,112.13q-2.55-1.5-5.4-3c-15.8-7.9-37.4-12.8-61.2-12.9v39.1c20.7.1,39.8,3.8,54.8,10,3.3,1.4,6.9-1,7.5-4.8l4.3-28.4Z"/><path class="cls-11" d="M132.75,107.23l-3.1,20.8a4.41,4.41,0,0,1-1.4,2.6,4,4,0,0,1-2.5,1,3.53,3.53,0,0,1-1.4-.3c-13.6-5.6-30.7-8.9-49.4-8.9-18.4,0-35.3,3.2-48.8,8.7a4.15,4.15,0,0,1-1.6.3,4.36,4.36,0,0,1-2.9-1.1,4.89,4.89,0,0,1-1.6-3l-3-19.8-1.6.3-.3.1,3,19.7a7.26,7.26,0,0,0,2.3,4.3,6.2,6.2,0,0,0,4.1,1.6,6.56,6.56,0,0,0,2.3-.4c13.2-5.3,29.9-8.5,48.1-8.5,18.4,0,35.4,3.3,48.6,8.8a5.22,5.22,0,0,0,2.1.4,5.84,5.84,0,0,0,3.8-1.5,6.8,6.8,0,0,0,2.1-3.9l3.1-20.4-1.5-.7-.4-.1Zm-7.2-2.8-2.3,15.2a4,4,0,0,1-1.2,2.3,3.6,3.6,0,0,1-2.2.9,5,5,0,0,1-1.2-.2c-12-5-27.2-7.9-43.7-7.9-16.3,0-31.3,2.9-43.2,7.7a3.08,3.08,0,0,1-1.3.3,4,4,0,0,1-2.5-1,3.84,3.84,0,0,1-1.3-2.6l-2-13a1.61,1.61,0,0,1-.9.3h-.1a1.69,1.69,0,0,1-1-.3l2,13.4a6.68,6.68,0,0,0,2,3.9,5.79,5.79,0,0,0,3.7,1.5,4.48,4.48,0,0,0,2-.4c11.7-4.7,26.5-7.6,42.5-7.6,16.3,0,31.3,2.9,43,7.8a4.33,4.33,0,0,0,1.9.4,4.76,4.76,0,0,0,3.4-1.4,7,7,0,0,0,1.9-3.6l2.3-15-1.1-.4-.7-.1v-.2ZM33,101.73l-.6.1-1.4.4,1.4,9a5.94,5.94,0,0,0,1.8,3.4,4.87,4.87,0,0,0,3.3,1.3,5.66,5.66,0,0,0,1.8-.3c9.8-4,22.3-6.4,35.8-6.4,13.7,0,26.4,2.5,36.3,6.5a4.53,4.53,0,0,0,1.6.3,4.23,4.23,0,0,0,3-1.2,5.46,5.46,0,0,0,1.6-3.1l1.4-9.5h-.2l-1.8-.3-1.4,9.6a3.42,3.42,0,0,1-.9,1.8,2.61,2.61,0,0,1-1.7.7,2.92,2.92,0,0,1-.9-.2c-10.2-4.2-23-6.7-37-6.7-13.8,0-26.4,2.4-36.5,6.5a4.25,4.25,0,0,1-1.1.2,3.18,3.18,0,0,1-2-.8,3.56,3.56,0,0,1-1.1-2.1Z"/><path class="cls-10" d="M142.45,112.13V78.53c0-36.7-24.9-57.9-57.1-61.6a71.14,71.14,0,0,1,28,23c9.7,13.6,15.7,31.8,15.7,53.5,0,3.5-.1,8.3-.5,12.1a71.07,71.07,0,0,1,8.4,3.7A56.43,56.43,0,0,1,142.45,112.13Zm-49.3-14.9c3.9.4,7.6,1,11.3,1.7A24.4,24.4,0,0,0,93.15,97.23Zm28.6,5.8-1.1-.6a15.72,15.72,0,0,0-2.3-.4C119.45,102.33,120.65,102.73,121.75,103Zm2.6.9-.2-.7h2.3c0,.2-7.8-3.2-8-3.1l5,3.5Z"/><path class="cls-12" d="M129.05,94.33c0-21.9-6-40.3-15.7-54.1-7.8-11-19.4-20-30.7-24.4-2.4-.2-6.4-.9-6.4-.9h-.9v83.2a57.39,57.39,0,0,0,7.7.5c9.3,0,14-1.9,21.7,1.2,7.2,2.9,11.7,2.6,16,3.6l4,2.3-.5-1.6h2.3a28.35,28.35,0,0,1-4-1.6c-2-.8-3.9-1.6-4-1.6l8.4,5.9,1.7.2c.2-3.8.4-9,.4-12.7"/><path class="cls-3" d="M75.35,15.63v-3.3c-19.2,0-36.9,5.6-49.8,16.8s-21,27.9-21,49.1v34.3l4.2,27.8a10.37,10.37,0,0,0,3.2,6.1,9.52,9.52,0,0,0,6.2,2.5,8.29,8.29,0,0,0,3.4-.7c14.7-6,33.4-9.6,53.7-9.6,20.6,0,39.6,3.7,54.4,9.8a9.06,9.06,0,0,0,3.2.6,8.61,8.61,0,0,0,5.8-2.3,9.1,9.1,0,0,0,3-5.7l4.3-28.6V78.23c0-21.2-8-37.9-21-49.1s-30.6-16.8-49.8-16.8l.2,3.3v3.3c17.9,0,34,5.3,45.5,15.2s18.6,24.5,18.7,44.1v33.5l-4.3,28.4a3.08,3.08,0,0,1-.9,1.8,2,2,0,0,1-1.4.6,2,2,0,0,1-.7-.1c-15.7-6.5-35.5-10.3-56.9-10.3-21.1,0-40.6,3.7-56.2,10.1a2.92,2.92,0,0,1-.9.2,2.34,2.34,0,0,1-1.7-.7,3.56,3.56,0,0,1-1.1-2.2l-4.2-27.6V78.23c0-19.6,7.2-34.1,18.7-44.1S57.45,19,75.35,19Zm68.5,94.3c-1.8-1.1-3.7-2.2-5.6-3.2-16.5-8.4-38.8-13.6-63.2-13.6s-46.7,5.1-63.2,13.6c-2,1-3.9,2.1-5.7,3.2a2.83,2.83,0,0,0-.9,3.7,2.71,2.71,0,0,0,3.7.9c1.7-1,3.5-2,5.3-3,15.5-8,37.1-13,60.8-13s45.2,5,60.8,13a55.41,55.41,0,0,1,5.3,3,2.64,2.64,0,0,0,3.7-.9A3,3,0,0,0,143.85,109.93Z"/><text class="cls-13" transform="translate(30.71 80.25) rotate(-16.28)">A</text><text class="cls-13" transform="translate(52.5 73.54) rotate(-4.28)">N</text><text class="cls-13" transform="translate(78.67 71.62) rotate(8.73)">A</text><text class="cls-13" transform="translate(101.17 75.21) rotate(19.96)">L</text></svg>